<?xml version="1.0" encoding="UTF-8"?> <!-- Generator: Adobe Illustrator 16.0.4, SVG Export Plug-In . SVG Version: 6.00 Build 0) --> <svg xmlns="http://www.w3.org/2000/svg" xmlns:xlink="http://www.w3.org/1999/xlink" id="Layer_1" x="0px" y="0px" width="876.843px" height="250.404px" viewBox="0 0 876.843 250.404" xml:space="preserve"> <g> <g> <path fill="#AF2524" d="M150,146.504c0-0.997,0.27-2,1.126-2.568l0.864-0.431l-8.99-5.14v0.996c0,0.998-0.727,2.002-1.582,2.57 l-0.635,0.57l9.217,5.141V146.504z"></path> <path fill="#AF2524" d="M129.801,132.293c0.493-0.493,0.741-0.994,0.741-1.84c0-1.812-1.007-2.549-3.021-2.549H122v5h5.521 C128.548,132.904,129.308,132.787,129.801,132.293z"></path> <path fill="#AF2524" d="M95.138,110.797l-0.783,0.428c-0.858,0.569-1.354,1.426-1.354,2.57v24.281 c0,1.145,0.489,2.143,1.346,2.711l0.822,0.428l19.26,11.141l0.848,0.429c0.428,0.288,0.993,0.428,1.421,0.428 s0.994-0.14,1.426-0.428l0.854-0.429l19.278-11.141l1.089-0.568c0.856-0.568,1.657-1.426,1.657-2.57v-24.281 c0-0.996-0.801-2.001-1.658-2.57l-0.972-0.428l-19.478-11.279l-0.598-0.428c-0.429-0.289-1.013-0.43-1.441-0.43 c-0.569,0-1.005,0.141-1.432,0.43l-0.861,0.567L95.138,110.797z M118,115.904h9.459c2.056,0,3.687,0.542,4.896,1.498 c1.208,0.957,1.812,2.374,1.812,4.186c0,0.907-0.196,1.729-0.588,2.434c-0.394,0.705-0.943,1.275-1.647,1.701 c0.847,0.383,1.551,0.959,2.114,1.726c0.563,0.765,0.847,1.735,0.847,2.903c0,1.107-0.182,2.092-0.544,2.947 c-0.363,0.856-0.871,1.57-1.525,2.143c-0.655,0.576-1.445,0.87-2.373,1.163c-0.927,0.293-1.953,0.3-3.08,0.3H118V115.904z M115.074,127.445c0.564,0.765,0.847,1.736,0.847,2.904c0,1.107-0.181,2.093-0.543,2.948c-0.363,0.856-0.872,1.571-1.526,2.144 c-0.655,0.575-1.446,0.869-2.372,1.162s-1.954,0.301-3.081,0.301H99v-21h9.489c2.054,0,3.685,0.542,4.895,1.498 c1.208,0.957,1.812,2.374,1.812,4.186c0,0.907-0.197,1.729-0.589,2.434c-0.395,0.705-0.942,1.275-1.647,1.701 C113.806,126.105,114.511,126.679,115.074,127.445z"></path> <path fill="#AF2524" d="M108.549,127.904H103v5h5.549c1.027,0,1.788-0.117,2.281-0.611c0.494-0.493,0.74-0.994,0.74-1.84 C111.57,128.641,110.563,127.904,108.549,127.904z"></path> <path fill="#AF2524" d="M129.349,123.371c0.352-0.369,0.528-0.834,0.528-1.413c0-0.659-0.202-1.182-0.604-1.522 c-0.403-0.339-1.068-0.531-1.994-0.531H122v4h5.49C128.376,123.904,128.996,123.74,129.349,123.371z"></path> <path fill="#AF2524" d="M110.377,123.371c0.352-0.369,0.528-0.834,0.528-1.413c0-0.659-0.202-1.182-0.604-1.522 c-0.403-0.339-1.067-0.531-1.994-0.531H103v4h5.52C109.405,123.904,110.024,123.74,110.377,123.371z"></path> <path fill="#AF2524" d="M84,146.363v1.139l9.137-5.142l-0.784-0.569c-0.856-0.569-1.353-1.426-1.353-2.57v-0.998l-9.002,5.143 l0.717,0.428C83.571,144.362,84,145.219,84,146.363z"></path> <path fill="#AF2524" d="M177.625,89.234l-0.83-0.429l-9.414-5.429l-0.71-0.428c-0.428-0.288-0.993-0.429-1.421-0.429 c-0.57,0-0.997,0.141-1.425,0.429l-0.716,0.428l-9.564,5.569l-0.419,0.429c-0.858,0.568-1.126,1.426-1.126,2.57v12.713 c0,0.998,0.269,2.002,1.126,2.57l0.708,0.429l9.35,5.429l0.681,0.429c0.428,0.288,0.979,0.429,1.406,0.429 c0.429,0,0.988-0.141,1.416-0.429l0.712-0.429l9.564-5.568l0.664-0.43c0.858-0.568,1.373-1.426,1.373-2.57V91.805 C179,90.662,178.484,89.804,177.625,89.234z"></path> <path fill="#AF2524" d="M116.928,96.518c0.571,0,0.893,0.142,1.322,0.43l0.75,0.428V87.092l-0.795,0.569 c-0.43,0.288-0.915,0.429-1.344,0.429s-0.786-0.141-1.216-0.429L115,87.092v10.425l0.635-0.569 C116.064,96.659,116.5,96.518,116.928,96.518z"></path> <path fill="#AF2524" d="M68.426,115.938c-0.569,0-1.14-0.139-1.567-0.428L66,115.081v21.991l0.999-0.428 c0.428-0.289,1.068-0.43,1.496-0.43c0.571,0,1.034,0.141,1.462,0.43l0.587,0.428l0.015-21.991l-0.711,0.429 C69.418,115.799,68.995,115.938,68.426,115.938z"></path> <path fill="#AF2524" d="M165.188,135.904h0.033c0.569,0,1.316,0.299,1.744,0.586l1.035,0.588v-21.997l-1.02,0.429 c-0.428,0.289-1.261,0.428-1.689,0.428c-0.428,0-1.073-0.139-1.5-0.428L163,115.081v21.849l0.771-0.585 C164.198,136.205,164.617,135.904,165.188,135.904z"></path> <path fill="#AF2524" d="M150,161.352v-0.855l-19.291,10.999l0.789,0.427c0.857,0.57,1.502,1.426,1.502,2.571v0.858l18.768-11.001 l-0.528-0.428C150.382,163.354,150,162.497,150,161.352z"></path> <path fill="#AF2524" d="M129.42,173.067l-0.795-0.429l-9.465-5.429l-0.875-0.568c-0.429-0.288-1.008-0.429-1.437-0.429 c-0.57,0-1.002,0.141-1.43,0.429l-0.859,0.427l-9.429,5.431l-0.712,0.428c-0.854,0.569-1.419,1.426-1.419,2.57v12.713 c0,0.998,0.563,2.002,1.419,2.571l0.714,0.428l9.426,5.429l0.855,0.429c0.428,0.288,0.996,0.429,1.425,0.429 s0.998-0.141,1.427-0.429l0.855-0.429l9.427-5.429l0.871-0.428c0.856-0.569,1.581-1.428,1.581-2.571v-12.713 C131,174.493,130.416,173.496,129.42,173.067z"></path> <path fill="#AF2524" d="M177.625,145.072l-0.689-0.43l-9.413-5.429l-0.711-0.428c-0.428-0.289-0.993-0.429-1.423-0.429 c-0.568,0-0.994,0.14-1.423,0.429l-0.717,0.428l-9.564,5.429l-0.559,0.43c-0.858,0.568-1.126,1.426-1.126,2.57v12.713 c0,0.996,0.269,2.001,1.126,2.569l0.569,0.43l9.488,5.569l0.681,0.428c0.428,0.289,0.979,0.428,1.406,0.428 c0.429,0,0.988-0.139,1.416-0.428l0.712-0.428l9.424-5.43l0.805-0.429c0.858-0.568,1.373-1.426,1.373-2.569v-12.713 C179,146.645,178.484,145.647,177.625,145.072z"></path> <path fill="#AF2524" d="M84,160.643v0.857c0,0.997-0.43,2.002-1.287,2.571l-0.711,0.427L101,175.352v-0.858 c0-0.997,0.633-2.001,1.49-2.571l0.609-0.427L84,160.643z"></path> <path fill="#AF2524" d="M82.276,147.904h0.148c0-1-0.569-2.133-1.427-2.701l-0.864-0.495l-9.425-5.462l-0.569-0.443 c-0.428-0.289-0.998-0.438-1.427-0.438c-0.427,0-0.996,0.136-1.426,0.425l-0.855,0.426l-9.574,5.429l-0.574,0.428 c-0.856,0.568-1.283,1.426-1.283,2.57v12.713c0,0.996,0.427,2.001,1.283,2.569l0.787,0.43l9.249,5.429l0.839,0.428 c0.428,0.288,0.988,0.43,1.417,0.43c0.57,0,0.994-0.142,1.422-0.43l0.566-0.428l9.565-5.57l0.716-0.428 c0.856-0.569,1.426-1.295,1.426-2.439L82.276,147.904z"></path> <path fill="#AF2524" d="M84,90.662v0.854l19.131-10.998l-0.707-0.282c-0.856-0.569-1.424-1.424-1.424-2.569V76.81L82.076,87.809 l0.61,0.429C83.536,88.664,84,89.663,84,90.662z"></path> <path fill="#AF2524" d="M104.35,79.093l0.748,0.429l9.443,5.43l0.865,0.569c0.427,0.286,1,0.427,1.429,0.427s1-0.141,1.429-0.427 l0.857-0.431l9.426-5.429l0.872-0.428c0.856-0.569,1.581-1.425,1.581-2.571V63.951c0-0.999-0.725-2.004-1.58-2.572l-0.795-0.428 l-9.465-5.428l-0.875-0.424c-0.429-0.286-1.008-0.428-1.437-0.428c-0.57,0-1.002,0.142-1.43,0.428l-0.859,0.568l-9.287,5.43 l-0.782,0.429c-0.856,0.569-1.49,1.426-1.49,2.571V76.81C103,77.667,103.494,78.664,104.35,79.093z"></path> <path fill="#AF2524" d="M56.215,106.94l0.609,0.429l9.512,5.57l0.69,0.429c0.428,0.287,0.984,0.427,1.413,0.427 c0.569,0,0.99-0.14,1.42-0.427l0.712-0.429l9.425-5.43l0.717-0.429c0.857-0.568,1.287-1.426,1.287-2.57V91.805 c0-0.997-0.43-2.001-1.289-2.57l-0.646-0.429l-9.53-5.569l-0.699-0.429c-0.43-0.287-0.99-0.427-1.418-0.427 c-0.569,0-0.993,0.14-1.421,0.427l-0.715,0.429l-9.425,5.569l-0.643,0.429C55.355,89.804,55,90.66,55,91.805v12.713 C55,105.515,55.357,106.513,56.215,106.94z"></path> <path fill="#AF2524" d="M150,91.517v-0.854c0-0.999,0.27-2.004,1.126-2.572l0.79-0.429L133,76.81v0.857 c0,0.997-0.793,2.001-1.652,2.569l-0.526,0.431L150,91.517z"></path> </g> <g> <path fill="#222B59" d="M219.44,71.492h20.067c5.155,0,9.054,1.321,11.697,3.962c2.002,2.003,3.003,4.475,3.003,7.414v0.128 c0,1.363-0.181,2.567-0.543,3.61c-0.362,1.045-0.831,1.96-1.406,2.749c-0.575,0.788-1.257,1.479-2.045,2.076 c-0.789,0.598-1.588,1.108-2.397,1.534c1.321,0.47,2.525,1.013,3.611,1.63c1.087,0.618,2.023,1.354,2.812,2.205 c0.788,0.854,1.396,1.854,1.822,3.004c0.425,1.15,0.64,2.492,0.64,4.026v0.128c0,2.003-0.396,3.771-1.182,5.304 c-0.79,1.535-1.908,2.812-3.357,3.835c-1.448,1.023-3.194,1.801-5.24,2.333c-2.044,0.534-4.303,0.799-6.773,0.799H219.44V71.492z M246.348,84.146c0-1.789-0.671-3.184-2.014-4.187c-1.343-1.001-3.291-1.502-5.848-1.502h-11.312v11.888h10.737 c2.557,0,4.601-0.5,6.136-1.502c1.533-1,2.301-2.524,2.301-4.569V84.146z M248.84,103c0-1.917-0.758-3.397-2.27-4.441 c-1.513-1.044-3.824-1.566-6.934-1.566h-12.463v12.271h13.038c2.685,0,4.793-0.511,6.327-1.533 c1.533-1.022,2.301-2.557,2.301-4.602V103z"></path> <path fill="#222B59" d="M265.583,71.492h7.861v37.579h23.519v7.158h-31.38V71.492z"></path> <path fill="#222B59" d="M323.934,116.996c-3.45,0-6.604-0.606-9.459-1.822c-2.854-1.213-5.304-2.863-7.35-4.951 c-2.045-2.088-3.644-4.527-4.793-7.318c-1.15-2.791-1.726-5.762-1.726-8.915V93.86c0-3.151,0.575-6.124,1.726-8.915 c1.149-2.79,2.769-5.241,4.857-7.35c2.087-2.109,4.558-3.781,7.413-5.018c2.854-1.235,6.007-1.854,9.46-1.854 c3.45,0,6.603,0.607,9.457,1.822c2.855,1.215,5.305,2.865,7.352,4.952c2.044,2.088,3.643,4.528,4.792,7.318 c1.15,2.791,1.726,5.763,1.726,8.916v0.127c0,3.153-0.575,6.126-1.726,8.915c-1.149,2.792-2.77,5.241-4.856,7.352 c-2.089,2.108-4.561,3.78-7.414,5.016C330.537,116.378,327.385,116.996,323.934,116.996z M324.062,109.711 c2.213,0,4.25-0.415,6.103-1.248s3.44-1.954,4.761-3.362c1.32-1.41,2.354-3.074,3.101-4.995c0.745-1.921,1.118-3.971,1.118-6.149 v-0.127c0-2.177-0.373-4.237-1.118-6.18c-0.746-1.942-1.79-3.629-3.132-5.059c-1.342-1.431-2.951-2.572-4.825-3.427 c-1.876-0.854-3.921-1.281-6.136-1.281c-2.216,0-4.25,0.417-6.104,1.25s-3.441,1.964-4.762,3.394 c-1.321,1.43-2.354,3.105-3.1,5.027c-0.745,1.921-1.118,3.97-1.118,6.146v0.129c0,2.178,0.373,4.227,1.118,6.147 c0.745,1.922,1.79,3.607,3.132,5.06s2.95,2.594,4.825,3.427S321.846,109.711,324.062,109.711z"></path> <path fill="#222B59" d="M377.683,116.996c-3.282,0-6.307-0.597-9.075-1.789c-2.771-1.192-5.168-2.822-7.191-4.889 s-3.609-4.506-4.761-7.318c-1.15-2.812-1.726-5.816-1.726-9.011V93.86c0-3.194,0.564-6.188,1.694-8.979 c1.128-2.789,2.715-5.241,4.761-7.35c2.045-2.108,4.475-3.77,7.286-4.984s5.921-1.822,9.331-1.822c2.045,0,3.908,0.17,5.592,0.507 c1.683,0.338,3.228,0.813,4.634,1.426c1.405,0.612,2.705,1.341,3.897,2.187c1.193,0.845,2.323,1.773,3.389,2.785l-5.05,5.814 c-1.789-1.662-3.686-3.004-5.688-4.025c-2.003-1.024-4.282-1.535-6.838-1.535c-2.132,0-4.103,0.417-5.912,1.25 c-1.812,0.833-3.366,1.964-4.665,3.394c-1.301,1.43-2.323,3.105-3.068,5.027c-0.747,1.921-1.118,3.97-1.118,6.146v0.129 c0,2.178,0.361,4.238,1.086,6.18c0.725,1.942,1.747,3.629,3.067,5.06c1.32,1.43,2.887,2.562,4.698,3.395 c1.81,0.833,3.78,1.248,5.912,1.248c2.726,0,5.069-0.512,7.028-1.535c1.961-1.021,3.899-2.428,5.816-4.217l5.05,5.112 c-1.15,1.237-2.354,2.333-3.611,3.292c-1.257,0.958-2.61,1.789-4.058,2.492c-1.449,0.703-3.037,1.235-4.762,1.599 C381.677,116.814,379.77,116.996,377.683,116.996z"></path> <path fill="#222B59" d="M404.076,71.492h7.861v22.497l21.283-22.497h9.714l-18.663,19.236l19.494,25.501h-9.588l-15.273-20.132 l-6.967,7.158v12.974h-7.861V71.492z"></path> <path fill="#222B59" d="M471.247,116.996c-3.282,0-6.307-0.597-9.075-1.789c-2.771-1.192-5.167-2.822-7.191-4.889 c-2.023-2.066-3.609-4.506-4.761-7.318c-1.15-2.812-1.726-5.816-1.726-9.011V93.86c0-3.194,0.564-6.188,1.695-8.979 c1.127-2.789,2.715-5.241,4.76-7.35c2.046-2.108,4.475-3.77,7.286-4.984s5.922-1.822,9.331-1.822c2.045,0,3.908,0.17,5.593,0.507 c1.683,0.338,3.227,0.813,4.633,1.426c1.405,0.612,2.706,1.341,3.898,2.187c1.192,0.845,2.322,1.773,3.388,2.785l-5.05,5.814 c-1.788-1.662-3.686-3.004-5.688-4.025c-2.003-1.024-4.282-1.535-6.838-1.535c-2.132,0-4.102,0.417-5.911,1.25 c-1.812,0.833-3.367,1.964-4.666,3.394c-1.301,1.43-2.322,3.105-3.068,5.027c-0.746,1.921-1.118,3.97-1.118,6.146v0.129 c0,2.178,0.362,4.238,1.087,6.18c0.725,1.942,1.746,3.629,3.066,5.06c1.32,1.43,2.887,2.562,4.699,3.395 c1.81,0.833,3.779,1.248,5.911,1.248c2.726,0,5.069-0.512,7.029-1.535c1.96-1.021,3.898-2.428,5.815-4.217l5.051,5.112 c-1.151,1.237-2.355,2.333-3.611,3.292c-1.258,0.958-2.611,1.789-4.059,2.492c-1.449,0.703-3.036,1.235-4.762,1.599 C475.242,116.814,473.334,116.996,471.247,116.996z"></path> <path fill="#222B59" d="M497.641,71.492h7.861V90.09h21.347V71.492h7.861v44.737h-7.861V97.376h-21.347v18.854h-7.861V71.492z"></path> <path fill="#222B59" d="M562.062,71.172h7.286l19.686,45.058h-8.309l-4.538-10.802h-21.154l-4.602,10.802h-8.053L562.062,71.172z M573.312,98.463l-7.734-17.896l-7.668,17.896H573.312z"></path> <path fill="#222B59" d="M597.15,71.492h7.86v44.737h-7.86V71.492z"></path> <path fill="#222B59" d="M616.961,71.492h7.286l23.966,30.933V71.492h7.734v44.737h-6.583l-24.67-31.827v31.827h-7.733V71.492z"></path> <path fill="#222B59" d="M219.44,135.403h20.067c5.155,0,9.054,1.321,11.697,3.962c2.002,2.003,3.003,4.475,3.003,7.414v0.128 c0,1.363-0.181,2.567-0.543,3.61c-0.362,1.045-0.831,1.96-1.406,2.748c-0.575,0.789-1.257,1.48-2.045,2.077 c-0.789,0.597-1.588,1.108-2.397,1.534c1.321,0.469,2.525,1.012,3.611,1.629c1.087,0.619,2.023,1.354,2.812,2.205 c0.788,0.854,1.396,1.854,1.822,3.004c0.425,1.15,0.64,2.492,0.64,4.027v0.127c0,2.004-0.396,3.771-1.182,5.305 c-0.79,1.535-1.908,2.812-3.357,3.834c-1.448,1.024-3.194,1.801-5.24,2.334c-2.044,0.533-4.303,0.799-6.773,0.799H219.44V135.403z M246.348,148.057c0-1.789-0.671-3.184-2.014-4.186c-1.343-1.001-3.291-1.502-5.848-1.502h-11.312v11.888h10.737 c2.557,0,4.601-0.501,6.136-1.502c1.533-1.001,2.301-2.524,2.301-4.57V148.057z M248.84,166.91c0-1.917-0.758-3.396-2.27-4.44 c-1.513-1.044-3.824-1.566-6.934-1.566h-12.463v12.271h13.038c2.685,0,4.793-0.512,6.327-1.533 c1.533-1.023,2.301-2.557,2.301-4.602V166.91z"></path> <path fill="#222B59" d="M283.926,180.844c-2.897,0-5.519-0.416-7.861-1.246c-2.344-0.831-4.346-2.078-6.007-3.739 c-1.662-1.662-2.94-3.717-3.835-6.167s-1.342-5.295-1.342-8.532v-25.756h7.86v25.436c0,4.176,1.001,7.34,3.004,9.491 c2.003,2.152,4.771,3.228,8.309,3.228c3.493,0,6.241-1.032,8.244-3.099c2.003-2.068,3.004-5.167,3.004-9.3v-25.756h7.862v25.372 c0,3.323-0.459,6.242-1.375,8.756c-0.917,2.515-2.205,4.612-3.866,6.295c-1.662,1.684-3.676,2.94-6.04,3.771 C289.519,180.428,286.866,180.844,283.926,180.844z"></path> <path fill="#222B59" d="M313.963,135.403h7.287l23.966,30.933v-30.933h7.732v44.737h-6.582l-24.67-31.828v31.828h-7.733V135.403z"></path> <path fill="#222B59" d="M364.452,135.403h16.681c3.493,0,6.699,0.564,9.619,1.693c2.918,1.13,5.432,2.695,7.541,4.696 c2.109,2.004,3.738,4.357,4.889,7.062c1.151,2.707,1.727,5.635,1.727,8.789v0.127c0,3.153-0.575,6.094-1.727,8.819 c-1.15,2.728-2.779,5.093-4.889,7.095c-2.109,2.003-4.623,3.579-7.541,4.729c-2.92,1.15-6.126,1.727-9.619,1.727h-16.681V135.403z M372.313,142.561v30.422h8.819c2.343,0,4.475-0.373,6.392-1.119c1.917-0.744,3.547-1.789,4.889-3.131 c1.343-1.342,2.386-2.94,3.132-4.794c0.744-1.853,1.119-3.866,1.119-6.038v-0.129c0-2.173-0.375-4.195-1.119-6.072 c-0.746-1.874-1.789-3.482-3.132-4.825c-1.342-1.342-2.972-2.396-4.889-3.163c-1.917-0.767-4.049-1.15-6.392-1.15H372.313z"></path> <path fill="#222B59" d="M414.43,135.403h33.171v7.03h-25.31v11.632h22.433v7.029h-22.433v12.016h25.629v7.03h-33.49V135.403z"></path> <path fill="#222B59" d="M472.909,180.78c-3.452,0-6.755-0.587-9.906-1.759c-3.153-1.171-6.071-2.971-8.757-5.399l4.729-5.625 c2.174,1.876,4.378,3.313,6.616,4.314c2.236,1.001,4.739,1.502,7.509,1.502c2.428,0,4.356-0.521,5.784-1.566 c1.426-1.044,2.14-2.397,2.14-4.058v-0.128c0-0.81-0.138-1.523-0.415-2.142c-0.277-0.616-0.788-1.203-1.533-1.758 c-0.746-0.554-1.769-1.064-3.068-1.533c-1.299-0.469-2.993-0.938-5.08-1.405c-2.388-0.554-4.506-1.183-6.359-1.886 s-3.409-1.555-4.666-2.558c-1.257-1.001-2.216-2.226-2.875-3.675c-0.662-1.447-0.991-3.194-0.991-5.24v-0.128 c0-1.917,0.384-3.675,1.151-5.272c0.766-1.598,1.821-2.961,3.163-4.09s2.949-2.014,4.825-2.653 c1.874-0.639,3.92-0.958,6.135-0.958c3.281,0,6.231,0.479,8.852,1.438c2.621,0.959,5.081,2.354,7.383,4.186l-4.219,5.945 c-2.045-1.492-4.069-2.631-6.071-3.419c-2.003-0.788-4.026-1.183-6.071-1.183c-2.301,0-4.091,0.511-5.369,1.533 s-1.917,2.28-1.917,3.771v0.129c0,0.853,0.149,1.608,0.447,2.269c0.298,0.661,0.852,1.257,1.662,1.789 c0.809,0.533,1.895,1.033,3.259,1.502c1.363,0.469,3.133,0.959,5.305,1.47c2.343,0.597,4.41,1.258,6.199,1.981 c1.79,0.726,3.292,1.609,4.506,2.652c1.215,1.045,2.119,2.259,2.717,3.644c0.596,1.385,0.895,2.993,0.895,4.825v0.127 c0,2.089-0.395,3.963-1.183,5.625c-0.789,1.662-1.886,3.066-3.292,4.218c-1.406,1.149-3.089,2.023-5.049,2.62 C477.402,180.48,475.252,180.78,472.909,180.78z"></path> <path fill="#222B59" d="M492.401,135.403h8.692l13.484,34.384L528,135.403h8.5l-18.535,45.057H511L492.401,135.403z"></path> <path fill="#222B59" d="M544.169,135.403h33.171v7.03h-25.31v11.632h22.433v7.029H552.03v12.016h25.628v7.03h-33.489V135.403z"></path> <path fill="#222B59" d="M586.989,135.403h19.94c2.812,0,5.305,0.395,7.478,1.182c2.173,0.789,3.983,1.885,5.432,3.291 c1.193,1.237,2.11,2.665,2.749,4.282c0.639,1.62,0.959,3.409,0.959,5.369v0.128c0,3.665-0.991,6.614-2.973,8.851 c-1.98,2.238-4.527,3.804-7.637,4.698l12.079,16.937h-9.331l-10.993-15.595h-9.842v15.595h-7.861V135.403z M606.354,157.58 c2.812,0,5.05-0.671,6.712-2.013c1.661-1.343,2.492-3.164,2.492-5.465v-0.128c0-2.43-0.81-4.271-2.428-5.528 c-1.621-1.257-3.899-1.886-6.839-1.886h-11.44v15.02H606.354z"></path> <path fill="#222B59" d="M633.196,135.403h20.068c5.155,0,9.053,1.321,11.694,3.962c2.004,2.003,3.005,4.475,3.005,7.414v0.128 c0,1.363-0.183,2.567-0.543,3.61c-0.362,1.045-0.831,1.96-1.406,2.748c-0.575,0.789-1.257,1.48-2.045,2.077 c-0.789,0.597-1.589,1.108-2.397,1.534c1.32,0.469,2.525,1.012,3.611,1.629c1.087,0.619,2.022,1.354,2.812,2.205 c0.788,0.854,1.395,1.854,1.822,3.004c0.425,1.15,0.638,2.492,0.638,4.027v0.127c0,2.004-0.395,3.771-1.183,5.305 c-0.787,1.535-1.907,2.812-3.354,3.834c-1.449,1.024-3.195,1.801-5.24,2.334c-2.046,0.533-4.305,0.799-6.774,0.799h-20.708 V135.403z M660.104,148.057c0-1.789-0.672-3.184-2.014-4.186c-1.342-1.001-3.292-1.502-5.848-1.502H640.93v11.888h10.736 c2.557,0,4.603-0.501,6.136-1.502c1.534-1.001,2.302-2.524,2.302-4.57V148.057z M662.596,166.91c0-1.917-0.757-3.396-2.269-4.44 c-1.514-1.044-3.824-1.566-6.936-1.566H640.93v12.271h13.037c2.686,0,4.795-0.512,6.327-1.533 c1.535-1.023,2.302-2.557,2.302-4.602V166.91z"></path> <path fill="#222B59" d="M695.189,135.083h7.286l19.684,45.058h-8.309l-4.537-10.802h-21.155l-4.602,10.802h-8.053L695.189,135.083 z M706.437,162.373l-7.733-17.895l-7.669,17.895H706.437z"></path> <path fill="#222B59" d="M729.828,135.403h7.287l23.966,30.933v-30.933h7.732v44.737h-6.583l-24.669-31.828v31.828h-7.733V135.403z "></path> <path fill="#222B59" d="M780.317,135.403h16.681c3.493,0,6.699,0.564,9.618,1.693c2.918,1.13,5.433,2.695,7.542,4.696 c2.109,2.004,3.738,4.357,4.889,7.062c1.151,2.707,1.727,5.635,1.727,8.789v0.127c0,3.153-0.575,6.094-1.727,8.819 c-1.15,2.728-2.779,5.093-4.889,7.095c-2.109,2.003-4.624,3.579-7.542,4.729c-2.919,1.15-6.125,1.727-9.618,1.727h-16.681V135.403 z M788.178,142.561v30.422h8.82c2.342,0,4.475-0.373,6.392-1.119c1.917-0.744,3.547-1.789,4.889-3.131s2.386-2.94,3.132-4.794 c0.744-1.853,1.118-3.866,1.118-6.038v-0.129c0-2.173-0.374-4.195-1.118-6.072c-0.746-1.874-1.79-3.482-3.132-4.825 c-1.342-1.342-2.972-2.396-4.889-3.163c-1.917-0.767-4.05-1.15-6.392-1.15H788.178z"></path> </g> </g> </svg> 