<svg id="Calque_1" data-name="Calque 1" xmlns="http://www.w3.org/2000/svg" viewBox="0 0 930 407">
  <defs>
    <style>
      .cls-1 {
        fill: #98a9d7;
      }

      .cls-2 {
        fill: #15427f;
      }

      .cls-3 {
        fill: #374e9b;
      }

      .cls-4 {
        fill: #374e9a;
      }

      .cls-5 {
        fill: #29353a;
      }
    </style>
  </defs>
  <g>
    <path class="cls-1" d="M100.78,225.84,77.16,208a2.19,2.19,0,0,1-.28-3.25L90.6,190.13Z"/>
    <path class="cls-1" d="M158.62,258.56l-6.27,4.34a2.19,2.19,0,0,1-2.57,0L124,243.41Z"/>
    <path class="cls-1" d="M222,179l-74.21-49.82L170.59,105a2.19,2.19,0,0,1,3.43.31Z"/>
    <path class="cls-2" d="M236.3,204.84l-77.68,53.72L124,243.41l-23.26-17.57L90.6,190.13l57.23-60.91L222,179l14.85,22.81A2.19,2.19,0,0,1,236.3,204.84Z"/>
    <path class="cls-3" d="M124,243.41l-19.92-8.74a2.19,2.19,0,0,1-1.22-1.4l-2.12-7.43Z"/>
    <path class="cls-4" d="M147.83,129.22,90.6,190.13,57.21,73a2.18,2.18,0,0,1,3.32-2.4Z"/>
    <path class="cls-4" d="M246,197l-26.46,85.61a2.18,2.18,0,0,1-3,1.36l-58-25.42,77.68-53.72a2.19,2.19,0,0,0,.59-3L222,179l23.09,15.51A2.19,2.19,0,0,1,246,197Z"/>
  </g>
  <g>
    <path class="cls-5" d="M282.06,93.33h16.28l15,44.47h2.51l15-44.47h16.28l-21.92,63.88H304Z"/>
    <path class="cls-5" d="M424.23,151h-.63a18.65,18.65,0,0,1-4.39,3.76,25.12,25.12,0,0,1-13.77,3.76c-14.53,0-23.18-8.9-23.18-19.42,0-12.52,8.77-21.29,26.31-21.29H423v-1.25c0-7-4.26-11.9-11.27-11.9s-10.65,4.51-11.27,8.14H384.77c1.38-10.52,9.89-20.67,26.93-20.67,16.28,0,26.93,10.77,26.93,24.43v40.7H425.48ZM423,129.66H409.82c-8.14,0-11.9,3.13-11.9,8.14s3.63,8.14,10,8.14c9.52,0,15-5.51,15-14.4Z"/>
    <path class="cls-5" d="M486.22,69.53h15.66v87.68H486.22Z"/>
    <path class="cls-5" d="M549.48,68.28h16.91v15H549.48Zm.62,25h15.66v63.88H550.1Z"/>
  </g>
  <g>
    <path class="cls-5" d="M291.16,187.81h15.66V218.5h.62a17,17,0,0,1,4.39-4,24,24,0,0,1,13.77-4.13c16.29,0,29.44,13.15,29.44,33.19s-13.15,33.2-29.44,33.2a25.2,25.2,0,0,1-14.27-4,17.79,17.79,0,0,1-4.51-4.13h-.63l-1.25,6.89H291.16Zm48.22,55.74c0-12-6.76-18.79-16.28-18.79s-16.28,6.77-16.28,18.79,6.76,18.79,16.28,18.79S339.38,255.58,339.38,243.55Z"/>
    <path class="cls-5" d="M458.38,256.71c-1.38,5-9.27,20-29.44,20-18.79,0-32.57-13.78-32.57-33.2s13.78-33.19,32.57-33.19c17.54,0,31.31,13.78,31.31,31.94a37.2,37.2,0,0,1-.37,4.51l-.25,1.75H412c1.38,8.9,8,15,16.91,15,7.39,0,11.9-4.26,13.15-6.89ZM444.6,237.92c-1.38-8.14-6.77-14.41-15.66-14.41-9.52,0-15,6.27-16.91,14.41Z"/>
    <path class="cls-5" d="M504.72,211.61h13.15l1.25,5.64h.63a14.64,14.64,0,0,1,2.75-2.76,14.08,14.08,0,0,1,8.52-2.88h12.53v15H532.28c-7.9,0-11.9,4-11.9,11.9v37H504.72Z"/>
    <path class="cls-5" d="M584.88,187.81h15.66V275.5H584.88Z"/>
    <path class="cls-5" d="M648.14,186.56h16.91v15H648.14Zm.62,25.05h15.66V275.5H648.76Z"/>
    <path class="cls-5" d="M712,211.61h14.41l1.25,6.27h.63a20.58,20.58,0,0,1,4.26-3.76,23.9,23.9,0,0,1,13.27-3.76c14.41,0,25.06,10.65,25.06,26.93V275.5H755.23v-37c0-8.14-5.64-13.78-13.78-13.78s-13.78,5.64-13.78,13.78v37H712Z"/>
  </g>
  <g>
    <path class="cls-5" d="M292,311.36h14.57v3.72H296v5.27h9.92v3.72H296v5.27h10.54v3.72H292Z"/>
    <path class="cls-5" d="M311.35,317.25h3.57l.31,1.55h.15a5.09,5.09,0,0,1,1.06-.93,5.93,5.93,0,0,1,3.28-.93c3.57,0,6.2,2.64,6.2,6.67v9.45h-3.87v-9.14a3.41,3.41,0,0,0-6.82,0v9.14h-3.88Z"/>
    <path class="cls-5" d="M331.5,321H329v-3.72h2.48v-4.49h3.88v4.49h3.56V321h-3.56v7.6a1,1,0,0,0,1.08,1.08h2.48v3.41h-3.41c-2.63,0-4-1.36-4-3.72Z"/>
    <path class="cls-5" d="M343.44,317.25h3.25l.31,1.4h.16a3.4,3.4,0,0,1,.68-.69,3.47,3.47,0,0,1,2.11-.71h3.1V321h-2.79a2.61,2.61,0,0,0-2.95,2.95v9.14h-3.87Z"/>
    <path class="cls-5" d="M370.41,328.41a7.39,7.39,0,0,1-7.29,5,8.22,8.22,0,0,1,0-16.44,7.71,7.71,0,0,1,7.75,7.91,9,9,0,0,1-.09,1.11l-.06.44H358.94a4.16,4.16,0,0,0,4.18,3.72,3.63,3.63,0,0,0,3.26-1.71ZM367,323.76a3.89,3.89,0,0,0-3.88-3.56,4.16,4.16,0,0,0-4.18,3.56Z"/>
    <path class="cls-5" d="M375.21,317.25h3.57l.31,1.71h.15a4,4,0,0,1,1.09-1,6,6,0,0,1,3.41-1c4,0,7.28,3.26,7.28,8.22s-3.25,8.22-7.28,8.22a6.2,6.2,0,0,1-3.48-.94,4.56,4.56,0,0,1-1-.93h-.15v7.76h-3.88Zm7.91,3.26c-2.36,0-4,1.67-4,4.65s1.67,4.65,4,4.65,4-1.68,4-4.65S385.47,320.51,383.12,320.51Z"/>
    <path class="cls-5" d="M395.36,317.25h3.26l.31,1.4h.15a3.69,3.69,0,0,1,.68-.69,3.5,3.5,0,0,1,2.11-.71H405V321h-2.79a2.61,2.61,0,0,0-2.94,2.95v9.14h-3.88Z"/>
    <path class="cls-5" d="M422.33,328.41a7.37,7.37,0,0,1-7.28,5,8.22,8.22,0,0,1,0-16.44,7.71,7.71,0,0,1,7.75,7.91,9,9,0,0,1-.09,1.11l-.07.44H410.86a4.17,4.17,0,0,0,4.19,3.72,3.61,3.61,0,0,0,3.25-1.71Zm-3.41-4.65a3.88,3.88,0,0,0-3.87-3.56,4.17,4.17,0,0,0-4.19,3.56Z"/>
    <path class="cls-5" d="M427.14,317.25h3.56l.31,1.55h.16a5.29,5.29,0,0,1,1.05-.93,6,6,0,0,1,3.29-.93c3.56,0,6.2,2.64,6.2,6.67v9.45h-3.88v-9.14a3.41,3.41,0,1,0-6.82,0v9.14h-3.87Z"/>
    <path class="cls-5" d="M461.24,328.41a7.39,7.39,0,0,1-7.29,5,8.22,8.22,0,0,1,0-16.44,7.71,7.71,0,0,1,7.75,7.91,9,9,0,0,1-.09,1.11l-.06.44H449.77a4.16,4.16,0,0,0,4.18,3.72,3.63,3.63,0,0,0,3.26-1.71Zm-3.41-4.65A3.89,3.89,0,0,0,454,320.2a4.15,4.15,0,0,0-4.18,3.56Z"/>
    <path class="cls-5" d="M466,317.25h3.88v9.15a3.41,3.41,0,0,0,6.82,0v-9.15h3.87v15.81h-3.56l-.31-1.55h-.16a4.73,4.73,0,0,1-1.05.93,6,6,0,0,1-3.29.94c-3.56,0-6.2-2.64-6.2-6.67Z"/>
    <path class="cls-5" d="M485.72,317.25H489l.31,1.4h.16a3.4,3.4,0,0,1,.68-.69,3.45,3.45,0,0,1,2.11-.71h3.1V321h-2.79a2.61,2.61,0,0,0-2.95,2.95v9.14h-3.88Z"/>
    <path class="cls-5" d="M501.38,328.26c0,.77,1,2,3.1,2s2.95-.74,2.95-1.7-.44-1.49-2.17-1.77l-2.48-.4c-3.26-.53-5.12-1.86-5.12-4.5s2.33-5,6.67-5c4.62,0,6.66,3.26,6.66,5.12h-3.72c0-1-1.08-2-2.94-2s-2.79.9-2.79,1.86c0,.75.71,1.24,2.17,1.46l2.63.4c3.26.5,5,2,5,4.81,0,2.6-2.2,4.81-6.82,4.81-5.89,0-6.82-4-6.82-5.12Z"/>
    <path class="cls-5" d="M515.64,311.36h3.87v7.44h.16a5.29,5.29,0,0,1,1.05-.93,6,6,0,0,1,3.29-.93c3.57,0,6.2,2.64,6.2,6.67v9.45h-3.87v-9.14a3.42,3.42,0,0,0-6.83,0v9.14h-3.87Z"/>
    <path class="cls-5" d="M535,311.05h4.19v3.72H535Zm.16,6.2H539v15.81h-3.87Z"/>
    <path class="cls-5" d="M544.16,317.25h3.56L548,319h.15a4,4,0,0,1,1.09-1,5.94,5.94,0,0,1,3.41-1c4,0,7.28,3.26,7.28,8.22s-3.25,8.22-7.28,8.22a6.2,6.2,0,0,1-3.48-.94,4.56,4.56,0,0,1-1-.93H548v7.76h-3.88Zm7.91,3.26c-2.36,0-4,1.67-4,4.65s1.67,4.65,4,4.65,4-1.68,4-4.65S554.42,320.51,552.07,320.51Z"/>
    <path class="cls-5" d="M573.45,311.36h4V320h9.77v-8.68h4v21.7h-4v-9h-9.77v9h-4Z"/>
    <path class="cls-5" d="M596.7,317.25h3.88v9.15a3.41,3.41,0,1,0,6.82,0v-9.15h3.88v15.81h-3.57l-.31-1.55h-.15a4.78,4.78,0,0,1-1.06.93,6,6,0,0,1-3.29.94c-3.56,0-6.2-2.64-6.2-6.67Z"/>
    <path class="cls-5" d="M616.54,311.36h3.88V319h.15a4,4,0,0,1,1.09-1,6,6,0,0,1,3.41-1c4,0,7.29,3.26,7.29,8.22s-3.26,8.22-7.29,8.22a6.24,6.24,0,0,1-3.54-1,4.5,4.5,0,0,1-1.11-1h-.16l-.31,1.7h-3.41Zm11.94,13.8c0-3-1.67-4.65-4-4.65s-4,1.67-4,4.65,1.67,4.65,4,4.65S628.48,328.13,628.48,325.16Z"/>
    <path class="cls-5" d="M655.14,331.51H655a4.13,4.13,0,0,1-1.08.93,6.17,6.17,0,0,1-3.41.94c-3.6,0-5.74-2.21-5.74-4.81,0-3.1,2.17-5.27,6.51-5.27h3.57V323A2.7,2.7,0,0,0,652,320a2.64,2.64,0,0,0-2.79,2h-3.88c.34-2.61,2.45-5.12,6.67-5.12,4,0,6.67,2.67,6.67,6.05v10.07h-3.26Zm-.31-5.27h-3.26c-2,0-2.94.78-2.94,2s.9,2,2.48,2c2.36,0,3.72-1.36,3.72-3.56Z"/>
    <path class="cls-5" d="M664.28,321H661.8v-3.72h2.48v-4.49h3.88v4.49h3.56V321h-3.56v7.6a1,1,0,0,0,1.08,1.08h2.48v3.41h-3.41c-2.63,0-4-1.36-4-3.72Z"/>
    <path class="cls-5" d="M685.36,311.36h14.58v3.72H689.39v5.27h9.93v3.72h-9.93v5.27h10.55v3.72H685.36Z"/>
    <path class="cls-5" d="M707.84,326.24c0,1.89,1.86,3.41,4.8,3.41,3.1,0,4.34-1.21,4.34-2.79,0-1.27-.77-2.29-3.56-2.79l-3.72-.62c-3.75-.62-5.43-2.79-5.43-5.89,0-3.6,3-6.51,8.06-6.51,5.58,0,8.38,3.07,8.38,7.13h-4c0-1.86-1.51-3.41-4.34-3.41s-4,1.21-4,2.79c0,1.24.62,2.08,3,2.48l3.41.62c4.37.78,6.36,2.61,6.36,6.2s-2.8,6.52-8.38,6.52-8.83-3.08-8.83-7.14Z"/>
    <path class="cls-5" d="M725.82,311.36h6.51l5.12,15.19h.61l5.12-15.19h6.51v21.7h-4V318H745l-5.11,15h-4.35l-5.11-15h-.62v15h-4Z"/>
    <path class="cls-5" d="M760.23,315.24h-6.51v-3.88h17v3.88h-6.51v17.82h-4Z"/>
  </g>
</svg>
