<svg id="Calque_1" data-name="Calque 1" xmlns="http://www.w3.org/2000/svg" viewBox="0 0 930 334">
  <defs>
    <style>
      .cls-1 {
        fill: #98a9d7;
      }

      .cls-2 {
        fill: #15427f;
      }

      .cls-3 {
        fill: #374e9b;
      }

      .cls-4 {
        fill: #374e9a;
      }

      .cls-5 {
        fill: #29353a;
      }
    </style>
  </defs>
  <path class="cls-1" d="M100.78,223.63,77.16,205.79a2.21,2.21,0,0,1-.28-3.26L90.6,187.92Z"/>
  <path class="cls-1" d="M158.62,256.35l-6.27,4.34a2.19,2.19,0,0,1-2.57-.05L124,241.2Z"/>
  <path class="cls-1" d="M222,176.83,147.83,127l22.76-24.22a2.18,2.18,0,0,1,3.43.3Z"/>
  <path class="cls-2" d="M236.3,202.64l-77.68,53.71L124,241.2l-23.26-17.57L90.6,187.92,147.83,127,222,176.83l14.85,22.81A2.21,2.21,0,0,1,236.3,202.64Z"/>
  <path class="cls-3" d="M124,241.2l-19.92-8.73a2.21,2.21,0,0,1-1.22-1.4l-2.12-7.44Z"/>
  <path class="cls-4" d="M147.83,127,90.6,187.92,57.21,70.8a2.18,2.18,0,0,1,3.32-2.4Z"/>
  <path class="cls-4" d="M246,194.8l-26.46,85.62a2.18,2.18,0,0,1-3,1.35l-58-25.42,77.68-53.71a2.21,2.21,0,0,0,.59-3L222,176.83l23.09,15.51A2.2,2.2,0,0,1,246,194.8Z"/>
  <g>
    <path class="cls-5" d="M282.06,91.13h16.28l15,44.46h2.51l15-44.46h16.28L325.27,155H304Z"/>
    <path class="cls-5" d="M424.23,148.75h-.63a18.62,18.62,0,0,1-4.39,3.75,25.12,25.12,0,0,1-13.77,3.76c-14.53,0-23.18-8.89-23.18-19.41,0-12.53,8.77-21.3,26.31-21.3H423V114.3c0-7-4.26-11.9-11.27-11.9s-10.65,4.51-11.27,8.14H384.77c1.38-10.52,9.89-20.67,26.93-20.67,16.28,0,26.93,10.78,26.93,24.43V155H425.48ZM423,127.45H409.82c-8.14,0-11.9,3.13-11.9,8.14s3.63,8.15,10,8.15c9.52,0,15-5.52,15-14.41Z"/>
    <path class="cls-5" d="M486.22,67.33h15.66V155H486.22Z"/>
    <path class="cls-5" d="M549.48,66.07h16.91v15H549.48Zm.62,25.06h15.66V155H550.1Z"/>
  </g>
  <g>
    <path class="cls-5" d="M291.16,185.61h15.66V216.3h.62a16.65,16.65,0,0,1,4.39-4,23.89,23.89,0,0,1,13.77-4.14c16.29,0,29.44,13.16,29.44,33.2s-13.15,33.19-29.44,33.19a25.12,25.12,0,0,1-14.27-4,17.44,17.44,0,0,1-4.51-4.13h-.63l-1.25,6.89H291.16Zm48.22,55.74c0-12-6.76-18.79-16.28-18.79s-16.28,6.76-16.28,18.79,6.76,18.79,16.28,18.79S339.38,253.37,339.38,241.35Z"/>
    <path class="cls-5" d="M458.38,254.5c-1.38,5-9.27,20-29.44,20-18.79,0-32.57-13.78-32.57-33.19s13.78-33.2,32.57-33.2c17.54,0,31.31,13.78,31.31,31.95a37,37,0,0,1-.37,4.5l-.25,1.76H412c1.38,8.89,8,15,16.91,15,7.39,0,11.9-4.26,13.15-6.89ZM444.6,235.71c-1.38-8.14-6.77-14.4-15.66-14.4-9.52,0-15,6.26-16.91,14.4Z"/>
    <path class="cls-5" d="M504.72,209.41h13.15l1.25,5.63h.63a14.31,14.31,0,0,1,2.75-2.75,14,14,0,0,1,8.52-2.88h12.53v15H532.28c-7.9,0-11.9,4-11.9,11.9v37H504.72Z"/>
    <path class="cls-5" d="M584.88,185.61h15.66v87.68H584.88Z"/>
    <path class="cls-5" d="M648.13,184.35H665v15H648.13Zm.63,25.06h15.66v63.88H648.76Z"/>
    <path class="cls-5" d="M712,209.41h14.41l1.25,6.26h.63a20.58,20.58,0,0,1,4.26-3.76,23.9,23.9,0,0,1,13.27-3.76c14.41,0,25,10.65,25,26.93v38.21H755.23v-37c0-8.14-5.64-13.78-13.78-13.78s-13.78,5.64-13.78,13.78v37H712Z"/>
  </g>
</svg>
